<?xml version="1.0" standalone="no"?>
<!DOCTYPE svg PUBLIC "-//W3C//DTD SVG 20010904//EN"
 "http://www.w3.org/TR/2001/REC-SVG-20010904/DTD/svg10.dtd">
<svg version="1.0" xmlns="http://www.w3.org/2000/svg"
 width="608.000000pt" height="593.000000pt" viewBox="0 0 608.000000 593.000000"
 preserveAspectRatio="xMidYMid meet">

<g transform="translate(0.000000,593.000000) scale(0.100000,-0.100000)"
fill="#000000" stroke="none">
<path d="M3132 5738 c-44 -22 -195 -244 -280 -413 -33 -66 -70 -129 -82 -140
-12 -11 -34 -40 -48 -65 -14 -25 -49 -70 -77 -100 -53 -58 -180 -214 -256
-314 -38 -51 -55 -65 -126 -98 -76 -36 -98 -57 -73 -73 5 -3 47 14 94 37 82
42 87 47 182 168 53 69 136 170 184 226 48 55 93 111 100 125 7 13 28 41 46
61 19 21 61 93 95 160 59 118 184 313 237 371 14 15 33 27 42 27 20 0 40 -19
40 -38 0 -7 -31 -77 -69 -155 -116 -238 -150 -352 -122 -406 17 -31 40 -26
117 28 71 50 379 209 446 231 47 15 76 6 84 -26 4 -14 5 -26 3 -28 -2 -2 -62
-41 -134 -86 -71 -46 -155 -102 -185 -125 -30 -24 -88 -59 -128 -79 -93 -47
-116 -69 -102 -97 7 -12 20 -20 33 -19 36 3 43 1 71 -25 29 -27 34 -69 11 -99
-15 -19 -15 -19 -38 2 -13 12 -29 22 -35 22 -26 0 -10 -38 28 -69 46 -36 57
-69 40 -110 -8 -21 -21 -31 -45 -35 -24 -5 -46 -21 -72 -51 -39 -46 -182 -166
-263 -222 -59 -40 -165 -93 -186 -93 -9 0 -46 -15 -80 -32 -57 -29 -62 -34
-49 -48 14 -13 21 -12 68 13 29 15 59 27 67 27 26 0 140 58 209 107 102 70
240 185 246 203 3 9 30 28 60 43 84 41 119 118 80 174 -14 20 -14 25 5 55 11
18 20 47 20 65 0 38 -40 90 -84 108 l-30 13 70 35 c38 19 89 50 114 69 24 18
112 78 195 133 138 92 150 103 153 133 3 25 -3 39 -27 62 -32 33 -46 35 -106
19 -58 -16 -368 -174 -451 -230 -67 -45 -72 -47 -77 -27 -8 28 68 229 137 365
71 140 78 172 43 207 -28 27 -57 32 -95 14z"/>
<path d="M790 4327 c-16 -8 -30 -29 -40 -57 -13 -40 -18 -45 -41 -42 -17 2
-37 -6 -55 -22 l-29 -25 3 -178 c2 -110 10 -226 22 -303 10 -72 18 -177 18
-248 l0 -123 -58 64 c-80 87 -163 131 -247 132 -55 0 -66 -3 -90 -27 -23 -24
-25 -30 -15 -52 6 -14 36 -44 66 -68 69 -54 147 -152 191 -237 51 -100 82
-136 180 -204 l90 -63 -3 -147 c-3 -142 -2 -147 18 -147 19 0 20 5 20 153 0
175 7 159 -105 234 -84 56 -115 91 -164 183 -54 103 -131 198 -204 256 -31 24
-57 48 -57 53 0 18 30 32 68 33 71 1 148 -44 234 -135 69 -72 79 -80 92 -67
22 22 23 295 1 415 -9 50 -19 172 -22 272 -6 197 -3 213 43 213 38 0 44 -24
99 -346 19 -115 35 -209 35 -211 0 -2 7 -3 15 -3 21 0 20 17 -26 280 -52 293
-57 351 -34 373 18 19 33 21 54 8 15 -10 52 -153 80 -316 38 -211 92 -329 144
-310 37 15 164 278 226 467 24 71 40 92 68 86 51 -10 40 -106 -32 -281 -91
-220 -136 -350 -125 -361 15 -15 24 -1 64 109 73 200 138 345 156 345 51 0 52
-64 4 -230 -83 -293 -84 -298 -94 -548 -10 -245 -11 -249 -41 -351 -14 -46
-19 -94 -19 -178 0 -104 2 -114 18 -111 15 3 17 17 18 113 1 81 7 128 22 177
23 74 42 275 42 450 0 114 10 161 85 418 22 77 37 148 38 188 2 59 0 66 -26
88 -16 13 -34 24 -41 24 -11 0 -12 8 -4 40 14 54 3 105 -29 130 -63 49 -100
13 -157 -152 -40 -116 -72 -185 -153 -335 -15 -29 -31 -53 -35 -53 -25 0 -67
141 -113 376 -37 193 -50 231 -85 249 -35 18 -38 18 -70 2z"/>
<path d="M5398 4116 c-20 -7 -56 -25 -80 -39 -43 -25 -71 -47 -241 -189 -73
-61 -82 -66 -97 -53 -23 21 -39 19 -143 -15 -51 -16 -104 -32 -119 -35 -18 -3
-43 -26 -74 -68 -26 -34 -73 -92 -105 -128 -53 -60 -64 -82 -117 -226 -33 -87
-62 -176 -66 -196 -6 -32 -14 -41 -56 -62 -35 -18 -48 -29 -44 -40 8 -21 21
-19 79 13 46 25 50 31 61 82 6 30 37 122 67 204 47 126 63 156 100 195 24 25
69 78 101 118 47 61 62 73 94 78 20 3 66 17 102 31 105 39 130 29 62 -24 -21
-17 -95 -67 -165 -111 -142 -89 -247 -167 -247 -182 0 -26 33 -17 82 23 29 24
112 80 183 125 72 45 177 120 235 167 58 46 152 123 210 170 93 76 190 136
219 136 14 0 41 -29 41 -45 0 -8 -53 -60 -117 -116 -65 -57 -162 -145 -216
-196 -54 -51 -102 -93 -107 -93 -13 0 -13 -27 0 -35 15 -9 68 32 175 135 201
193 359 320 398 320 30 0 50 -31 38 -62 -11 -29 -293 -328 -373 -395 -75 -62
-98 -89 -98 -112 0 -33 51 9 241 200 131 129 218 209 227 207 9 -2 21 -15 26
-29 7 -22 2 -36 -34 -90 -65 -97 -153 -204 -255 -309 -123 -127 -171 -200
-131 -200 8 0 31 24 52 53 48 67 301 312 323 312 24 0 25 -38 2 -82 -25 -50
-81 -120 -197 -249 -51 -57 -111 -129 -132 -162 -46 -66 -123 -141 -267 -256
-138 -110 -198 -147 -309 -191 -53 -21 -96 -39 -96 -41 0 -2 9 -8 20 -14 28
-15 173 45 275 115 145 98 346 275 396 347 25 37 101 130 170 207 136 155 199
248 199 296 0 36 -24 75 -47 75 -20 0 -13 16 37 90 22 32 40 68 40 80 0 29
-26 76 -45 84 -15 5 -15 8 -1 28 23 32 20 90 -4 116 -27 28 -88 30 -121 3 -24
-19 -24 -19 -49 9 -32 36 -56 42 -102 26z"/>
<path d="M4307 1625 c-52 -19 -112 -64 -132 -98 -9 -16 -48 -63 -86 -105 -91
-102 -122 -163 -164 -323 -47 -176 -75 -206 -225 -247 -41 -12 -122 -39 -180
-61 -85 -32 -104 -43 -102 -58 2 -10 5 -19 6 -20 1 -1 54 18 117 43 63 24 146
53 186 63 75 19 157 70 186 114 8 13 29 77 46 143 42 157 74 223 159 319 39
44 81 96 94 115 32 47 132 99 159 82 10 -7 54 -12 99 -12 97 0 143 -17 165
-60 23 -44 7 -56 -35 -25 -25 18 -46 25 -79 25 -60 0 -91 -9 -91 -26 0 -10 16
-14 63 -14 70 0 74 -2 106 -48 18 -25 29 -32 45 -28 15 3 27 -3 39 -20 11 -14
17 -27 15 -28 -1 -2 -25 2 -53 9 -29 8 -54 10 -59 5 -15 -15 12 -37 55 -44 32
-5 44 -13 57 -38 9 -18 32 -47 51 -65 33 -31 46 -66 58 -158 3 -22 9 -44 14
-49 5 -6 9 -26 8 -45 -1 -51 -76 -142 -177 -214 -45 -32 -118 -92 -164 -134
-61 -55 -111 -89 -188 -128 -58 -29 -123 -62 -145 -74 -22 -12 -82 -37 -132
-57 -51 -19 -129 -55 -174 -81 -73 -41 -79 -47 -66 -61 14 -13 24 -10 94 31
43 25 123 62 178 82 55 20 120 49 145 63 25 15 84 45 132 68 60 30 113 66 175
121 48 44 132 111 185 151 53 39 102 81 109 94 7 13 25 38 40 56 22 25 29 43
29 76 0 68 -29 196 -56 245 -13 24 -24 53 -24 64 0 23 -30 75 -77 135 -27 33
-33 48 -28 70 4 20 -1 38 -17 62 -43 62 -68 74 -181 81 -56 4 -111 9 -122 13
-11 3 -37 -1 -58 -9z"/>
<path d="M1820 1443 c-41 -8 -111 -25 -155 -38 -339 -99 -345 -103 -345 -179
-1 -83 -21 -184 -67 -321 l-46 -140 -123 -126 c-68 -70 -124 -131 -124 -137 0
-6 5 -14 12 -18 8 -5 58 40 140 127 l128 134 65 195 c41 123 65 212 65 240 0
64 18 93 65 107 366 107 407 115 508 96 136 -26 192 -44 300 -95 109 -53 132
-79 86 -93 -25 -8 -100 2 -149 20 -35 13 -159 28 -235 29 -22 0 -96 -16 -164
-36 -117 -33 -125 -37 -141 -69 -35 -70 -35 -75 16 -129 26 -28 75 -69 108
-91 59 -40 63 -41 123 -35 94 8 166 46 207 109 55 85 86 109 137 105 56 -4 61
-23 21 -86 -17 -26 -38 -70 -48 -98 -19 -55 -29 -64 -179 -153 -76 -45 -177
-114 -323 -222 -52 -38 -111 -73 -133 -79 -21 -5 -57 -15 -80 -21 -28 -7 -67
-34 -127 -88 -128 -116 -136 -125 -117 -141 14 -11 29 0 109 78 95 94 122 110
214 132 38 9 80 32 150 83 149 107 363 252 402 271 63 29 106 72 119 118 7 24
28 69 48 101 27 44 34 66 31 93 -3 26 0 35 14 40 10 3 25 15 35 27 10 12 30
30 44 39 31 20 45 63 27 85 -24 30 -223 121 -308 141 -198 47 -195 47 -310 25z
m590 -194 c0 -4 -4 -11 -10 -14 -5 -3 -10 -1 -10 6 0 6 -8 18 -17 26 -16 12
-14 12 10 2 15 -7 27 -16 27 -20z m-330 -88 c36 -4 73 -12 84 -17 17 -10 16
-12 -9 -18 -15 -4 -32 -3 -38 2 -7 5 -57 12 -112 16 -84 5 -111 3 -170 -14
-38 -11 -84 -20 -101 -20 -18 0 -38 -8 -49 -20 -10 -11 -23 -20 -29 -20 -6 0
-2 9 9 20 11 10 72 35 135 54 91 28 125 34 165 29 28 -3 79 -8 115 -12z m23
-70 c4 -4 -1 -18 -11 -32 -11 -13 -26 -38 -35 -55 -19 -38 -95 -73 -172 -81
-55 -6 -79 5 -170 82 -40 34 -26 57 41 67 27 4 69 14 94 22 33 11 72 13 145 9
55 -3 104 -9 108 -12z"/>
</g>
</svg>
