<?xml version="1.0" standalone="no"?>
<!DOCTYPE svg PUBLIC "-//W3C//DTD SVG 20010904//EN"
 "http://www.w3.org/TR/2001/REC-SVG-20010904/DTD/svg10.dtd">
<svg version="1.0" xmlns="http://www.w3.org/2000/svg"
 width="200.000000pt" height="200.000000pt" viewBox="0 0 200.000000 200.000000"
 preserveAspectRatio="xMidYMid meet">

<g transform="translate(0.000000,200.000000) scale(0.100000,-0.100000)"
fill="#000000" stroke="none">
<path d="M1070 1453 c-41 -8 -111 -25 -155 -38 -339 -99 -345 -103 -345 -179
-1 -83 -21 -184 -67 -321 l-46 -140 -123 -126 c-68 -70 -124 -131 -124 -137 0
-6 5 -14 12 -18 8 -5 58 40 140 127 l128 134 65 195 c41 123 65 212 65 240 0
64 18 93 65 107 366 107 407 115 508 96 136 -26 192 -44 300 -95 109 -53 132
-79 86 -93 -25 -8 -100 2 -149 20 -35 13 -159 28 -235 29 -22 0 -96 -16 -164
-36 -117 -33 -125 -37 -141 -69 -35 -70 -35 -75 16 -129 26 -28 75 -69 108
-91 59 -40 63 -41 123 -35 94 8 166 46 207 109 55 85 86 109 137 105 56 -4 61
-23 21 -86 -17 -26 -38 -70 -48 -98 -19 -55 -29 -64 -179 -153 -76 -45 -177
-114 -323 -222 -52 -38 -111 -73 -133 -79 -21 -5 -57 -15 -80 -21 -28 -7 -67
-34 -127 -88 -128 -116 -136 -125 -117 -141 14 -11 29 0 109 78 95 94 122 110
214 132 38 9 80 32 150 83 149 107 363 252 402 271 63 29 106 72 119 118 7 24
28 69 48 101 27 44 34 66 31 93 -3 26 0 35 14 40 10 3 25 15 35 27 10 12 30
30 44 39 31 20 45 63 27 85 -24 30 -223 121 -308 141 -198 47 -195 47 -310 25z
m590 -194 c0 -4 -4 -11 -10 -14 -5 -3 -10 -1 -10 6 0 6 -8 18 -17 26 -16 12
-14 12 10 2 15 -7 27 -16 27 -20z m-330 -88 c36 -4 73 -12 84 -17 17 -10 16
-12 -9 -18 -15 -4 -32 -3 -38 2 -7 5 -57 12 -112 16 -84 5 -111 3 -170 -14
-38 -11 -84 -20 -101 -20 -18 0 -38 -8 -49 -20 -10 -11 -23 -20 -29 -20 -6 0
-2 9 9 20 11 10 72 35 135 54 91 28 125 34 165 29 28 -3 79 -8 115 -12z m23
-70 c4 -4 -1 -18 -11 -32 -11 -13 -26 -38 -35 -55 -19 -38 -95 -73 -172 -81
-55 -6 -79 5 -170 82 -40 34 -26 57 41 67 27 4 69 14 94 22 33 11 72 13 145 9
55 -3 104 -9 108 -12z"/>
</g>
</svg>
