<?xml version="1.0" standalone="no"?>
<!DOCTYPE svg PUBLIC "-//W3C//DTD SVG 20010904//EN"
 "http://www.w3.org/TR/2001/REC-SVG-20010904/DTD/svg10.dtd">
<svg version="1.0" xmlns="http://www.w3.org/2000/svg"
 width="200.000000pt" height="200.000000pt" viewBox="0 0 200.000000 200.000000"
 preserveAspectRatio="xMidYMid meet">

<g transform="translate(0.000000,200.000000) scale(0.100000,-0.100000)"
fill="#000000" stroke="none">
<path d="M1298 1676 c-20 -7 -56 -25 -80 -39 -43 -25 -71 -47 -241 -189 -73
-61 -82 -66 -97 -53 -23 21 -39 19 -143 -15 -51 -16 -104 -32 -119 -35 -18 -3
-43 -26 -74 -68 -26 -34 -73 -92 -105 -128 -53 -60 -64 -82 -117 -226 -33 -87
-62 -176 -66 -196 -6 -32 -14 -41 -56 -62 -35 -18 -48 -29 -44 -40 8 -21 21
-19 79 13 46 25 50 31 61 82 6 30 37 122 67 204 47 126 63 156 100 195 24 25
69 78 101 118 47 61 62 73 94 78 20 3 66 17 102 31 105 39 130 29 62 -24 -21
-17 -95 -67 -165 -111 -142 -89 -247 -167 -247 -182 0 -26 33 -17 82 23 29 24
112 80 183 125 72 45 177 120 235 167 58 46 152 123 210 170 93 76 190 136
219 136 14 0 41 -29 41 -45 0 -8 -53 -60 -117 -116 -65 -57 -162 -145 -216
-196 -54 -51 -102 -93 -107 -93 -13 0 -13 -27 0 -35 15 -9 68 32 175 135 201
193 359 320 398 320 30 0 50 -31 38 -62 -11 -29 -293 -328 -373 -395 -75 -62
-98 -89 -98 -112 0 -33 51 9 241 200 131 129 218 209 227 207 9 -2 21 -15 26
-29 7 -22 2 -36 -34 -90 -65 -97 -153 -204 -255 -309 -123 -127 -171 -200
-131 -200 8 0 31 24 52 53 48 67 301 312 323 312 24 0 25 -38 2 -82 -25 -50
-81 -120 -197 -249 -51 -57 -111 -129 -132 -162 -46 -66 -123 -141 -267 -256
-138 -110 -198 -147 -309 -191 -53 -21 -96 -39 -96 -41 0 -2 9 -8 20 -14 28
-15 173 45 275 115 145 98 346 275 396 347 25 37 101 130 170 207 136 155 199
248 199 296 0 36 -24 75 -47 75 -20 0 -13 16 37 90 22 32 40 68 40 80 0 29
-26 76 -45 84 -15 5 -15 8 -1 28 23 32 20 90 -4 116 -27 28 -88 30 -121 3 -24
-19 -24 -19 -49 9 -32 36 -56 42 -102 26z"/>
</g>
</svg>
