<?xml version="1.0" standalone="no"?>
<!DOCTYPE svg PUBLIC "-//W3C//DTD SVG 20010904//EN"
 "http://www.w3.org/TR/2001/REC-SVG-20010904/DTD/svg10.dtd">
<svg version="1.0" xmlns="http://www.w3.org/2000/svg"
 width="200.000000pt" height="200.000000pt" viewBox="0 0 200.000000 200.000000"
 preserveAspectRatio="xMidYMid meet">

<g transform="translate(0.000000,200.000000) scale(0.100000,-0.100000)"
fill="#000000" stroke="none">
<path d="M997 1645 c-52 -19 -112 -64 -132 -98 -9 -16 -48 -63 -86 -105 -91
-102 -122 -163 -164 -323 -47 -176 -75 -206 -225 -247 -41 -12 -122 -39 -180
-61 -85 -32 -104 -43 -102 -58 2 -10 5 -19 6 -20 1 -1 54 18 117 43 63 24 146
53 186 63 75 19 157 70 186 114 8 13 29 77 46 143 42 157 74 223 159 319 39
44 81 96 94 115 32 47 132 99 159 82 10 -7 54 -12 99 -12 97 0 143 -17 165
-60 23 -44 7 -56 -35 -25 -25 18 -46 25 -79 25 -60 0 -91 -9 -91 -26 0 -10 16
-14 63 -14 70 0 74 -2 106 -48 18 -25 29 -32 45 -28 15 3 27 -3 39 -20 11 -14
17 -27 15 -28 -1 -2 -25 2 -53 9 -29 8 -54 10 -59 5 -15 -15 12 -37 55 -44 32
-5 44 -13 57 -38 9 -18 32 -47 51 -65 33 -31 46 -66 58 -158 3 -22 9 -44 14
-49 5 -6 9 -26 8 -45 -1 -51 -76 -142 -177 -214 -45 -32 -118 -92 -164 -134
-61 -55 -111 -89 -188 -128 -58 -29 -123 -62 -145 -74 -22 -12 -82 -37 -132
-57 -51 -19 -129 -55 -174 -81 -73 -41 -79 -47 -66 -61 14 -13 24 -10 94 31
43 25 123 62 178 82 55 20 120 49 145 63 25 15 84 45 132 68 60 30 113 66 175
121 48 44 132 111 185 151 53 39 102 81 109 94 7 13 25 38 40 56 22 25 29 43
29 76 0 68 -29 196 -56 245 -13 24 -24 53 -24 64 0 23 -30 75 -77 135 -27 33
-33 48 -28 70 4 20 -1 38 -17 62 -43 62 -68 74 -181 81 -56 4 -111 9 -122 13
-11 3 -37 -1 -58 -9z"/>
</g>
</svg>
