<?xml version="1.0" standalone="no"?>
<!DOCTYPE svg PUBLIC "-//W3C//DTD SVG 20010904//EN"
 "http://www.w3.org/TR/2001/REC-SVG-20010904/DTD/svg10.dtd">
<svg version="1.0" xmlns="http://www.w3.org/2000/svg"
 width="201.000000pt" height="200.000000pt" viewBox="0 0 201.000000 200.000000"
 preserveAspectRatio="xMidYMid meet">

<g transform="translate(0.000000,200.000000) scale(0.100000,-0.100000)"
fill="#000000" stroke="none">
<path d="M1112 1808 c-44 -22 -195 -244 -280 -413 -33 -66 -70 -129 -82 -140
-12 -11 -34 -40 -48 -65 -14 -25 -49 -70 -77 -100 -53 -58 -180 -214 -256
-314 -38 -51 -55 -65 -126 -98 -76 -36 -98 -57 -73 -73 5 -3 47 14 94 37 82
42 87 47 182 168 53 69 136 170 184 226 48 55 93 111 100 125 7 13 28 41 46
61 19 21 61 93 95 160 59 118 184 313 237 371 14 15 33 27 42 27 20 0 40 -19
40 -38 0 -7 -31 -77 -69 -155 -116 -238 -150 -352 -122 -406 17 -31 40 -26
117 28 71 50 379 209 446 231 47 15 76 6 84 -26 4 -14 5 -26 3 -28 -2 -2 -62
-41 -134 -86 -71 -46 -155 -102 -185 -125 -30 -24 -88 -59 -128 -79 -93 -47
-116 -69 -102 -97 7 -12 20 -20 33 -19 36 3 43 1 71 -25 29 -27 34 -69 11 -99
-15 -19 -15 -19 -38 2 -13 12 -29 22 -35 22 -26 0 -10 -38 28 -69 46 -36 57
-69 40 -110 -8 -21 -21 -31 -45 -35 -24 -5 -46 -21 -72 -51 -39 -46 -182 -166
-263 -222 -59 -40 -165 -93 -186 -93 -9 0 -46 -15 -80 -32 -57 -29 -62 -34
-49 -48 14 -13 21 -12 68 13 29 15 59 27 67 27 26 0 140 58 209 107 102 70
240 185 246 203 3 9 30 28 60 43 84 41 119 118 80 174 -14 20 -14 25 5 55 11
18 20 47 20 65 0 38 -40 90 -84 108 l-30 13 70 35 c38 19 89 50 114 69 24 18
112 78 195 133 138 92 150 103 153 133 3 25 -3 39 -27 62 -32 33 -46 35 -106
19 -58 -16 -368 -174 -451 -230 -67 -45 -72 -47 -77 -27 -8 28 68 229 137 365
71 140 78 172 43 207 -28 27 -57 32 -95 14z"/>
</g>
</svg>
