<?xml version="1.0" standalone="no"?>
<!DOCTYPE svg PUBLIC "-//W3C//DTD SVG 20010904//EN"
 "http://www.w3.org/TR/2001/REC-SVG-20010904/DTD/svg10.dtd">
<svg version="1.0" xmlns="http://www.w3.org/2000/svg"
 width="200.000000pt" height="200.000000pt" viewBox="0 0 200.000000 200.000000"
 preserveAspectRatio="xMidYMid meet">

<g transform="translate(0.000000,200.000000) scale(0.100000,-0.100000)"
fill="#000000" stroke="none">
<path d="M790 1847 c-16 -8 -30 -29 -40 -57 -13 -40 -18 -45 -41 -42 -17 2
-37 -6 -55 -22 l-29 -25 3 -178 c2 -110 10 -226 22 -303 10 -72 18 -177 18
-248 l0 -123 -58 64 c-80 87 -163 131 -247 132 -55 0 -66 -3 -90 -27 -23 -24
-25 -30 -15 -52 6 -14 36 -44 66 -68 69 -54 147 -152 191 -237 51 -100 82
-136 180 -204 l90 -63 -3 -147 c-3 -142 -2 -147 18 -147 19 0 20 5 20 153 0
175 7 159 -105 234 -84 56 -115 91 -164 183 -54 103 -131 198 -204 256 -31 24
-57 48 -57 53 0 18 30 32 68 33 71 1 148 -44 234 -135 69 -72 79 -80 92 -67
22 22 23 295 1 415 -9 50 -19 172 -22 272 -6 197 -3 213 43 213 38 0 44 -24
99 -346 19 -115 35 -209 35 -211 0 -2 7 -3 15 -3 21 0 20 17 -26 280 -52 293
-57 351 -34 373 18 19 33 21 54 8 15 -10 52 -153 80 -316 38 -211 92 -329 144
-310 37 15 164 278 226 467 24 71 40 92 68 86 51 -10 40 -106 -32 -281 -91
-220 -136 -350 -125 -361 15 -15 24 -1 64 109 73 200 138 345 156 345 51 0 52
-64 4 -230 -83 -293 -84 -298 -94 -548 -10 -245 -11 -249 -41 -351 -14 -46
-19 -94 -19 -178 0 -104 2 -114 18 -111 15 3 17 17 18 113 1 81 7 128 22 177
23 74 42 275 42 450 0 114 10 161 85 418 22 77 37 148 38 188 2 59 0 66 -26
88 -16 13 -34 24 -41 24 -11 0 -12 8 -4 40 14 54 3 105 -29 130 -63 49 -100
13 -157 -152 -40 -116 -72 -185 -153 -335 -15 -29 -31 -53 -35 -53 -25 0 -67
141 -113 376 -37 193 -50 231 -85 249 -35 18 -38 18 -70 2z"/>
</g>
</svg>
